<svg width="25" height="24" viewBox="0 0 25 24" fill="none" xmlns="http://www.w3.org/2000/svg">
<mask id="mask0_1183_10383" style="mask-type:alpha" maskUnits="userSpaceOnUse" x="0" y="0" width="25" height="24">
<rect x="0.783203" width="24" height="24" fill="#D9D9D9"/>
</mask>
<g mask="url(#mask0_1183_10383)">
<path d="M12.7832 13.7692C13.269 13.7692 13.6822 13.5991 14.0227 13.2587C14.363 12.9183 14.5332 12.5051 14.5332 12.0192C14.5332 11.5334 14.363 11.1202 14.0227 10.7797C13.6822 10.4394 13.269 10.2693 12.7832 10.2693C12.2974 10.2693 11.8842 10.4394 11.5437 10.7797C11.2034 11.1202 11.0332 11.5334 11.0332 12.0192C11.0332 12.5051 11.2034 12.9183 11.5437 13.2587C11.8842 13.5991 12.2974 13.7692 12.7832 13.7692ZM9.0332 17.4615H16.5332V17.098C16.5332 16.7428 16.4377 16.4275 16.2467 16.152C16.0557 15.8763 15.7941 15.6648 15.462 15.5173C15.048 15.3404 14.6182 15.2036 14.1727 15.1067C13.7272 15.0099 13.264 14.9615 12.7832 14.9615C12.3024 14.9615 11.8392 15.0099 11.3937 15.1067C10.9482 15.2036 10.5185 15.3404 10.1045 15.5173C9.77229 15.6648 9.5107 15.8763 9.3197 16.152C9.1287 16.4275 9.0332 16.7428 9.0332 17.098V17.4615ZM18.4755 21.5H7.09095C6.58579 21.5 6.1582 21.325 5.8082 20.975C5.4582 20.625 5.2832 20.1974 5.2832 19.6923V4.30775C5.2832 3.80258 5.4582 3.375 5.8082 3.025C6.1582 2.675 6.58579 2.5 7.09095 2.5H14.5717L20.2832 8.2115V19.6923C20.2832 20.1974 20.1082 20.625 19.7582 20.975C19.4082 21.325 18.9806 21.5 18.4755 21.5ZM18.4755 20C18.5525 20 18.623 19.9679 18.687 19.9038C18.7511 19.8398 18.7832 19.7693 18.7832 19.6923V8.85L13.9332 4H7.09095C7.01395 4 6.94345 4.03208 6.87945 4.09625C6.81529 4.16025 6.7832 4.23075 6.7832 4.30775V19.6923C6.7832 19.7693 6.81529 19.8398 6.87945 19.9038C6.94345 19.9679 7.01395 20 7.09095 20H18.4755Z" fill="white"/>
</g>
</svg>
