<svg width="26" height="26" viewBox="0 0 26 26" fill="none" xmlns="http://www.w3.org/2000/svg">
<mask id="mask0_1183_10367" style="mask-type:alpha" maskUnits="userSpaceOnUse" x="0" y="0" width="26" height="26">
<rect width="26" height="26" fill="#D9D9D9"/>
</mask>
<g mask="url(#mask0_1183_10367)">
<path d="M10.7916 18.1462H14.8958V16.5212H10.7916V18.1462ZM10.7916 13.8128H18.1458V12.1878H10.7916V13.8128ZM7.85417 9.47949H18.1458V7.85449H7.85417V9.47949ZM7.49992 23.292C6.15009 23.292 5.00013 22.8188 4.05005 21.8723C3.09997 20.9256 2.62492 19.7773 2.62492 18.4273C2.62492 17.4191 2.89648 16.5191 3.43959 15.7273C3.9827 14.9358 4.68759 14.3531 5.55426 13.9794H2.70834V12.3547H8.41669V18.0627H6.79169V15.2482C6.05413 15.4066 5.4461 15.7809 4.96763 16.3711C4.48916 16.9614 4.24992 17.6433 4.24992 18.417C4.24992 19.3239 4.5677 20.0924 5.20326 20.7223C5.83863 21.3521 6.60419 21.667 7.49992 21.667V23.292ZM10.7916 22.2087V20.5837H20.2499C20.3334 20.5837 20.4097 20.5489 20.4791 20.4794C20.5486 20.4101 20.5833 20.3337 20.5833 20.2503V5.75039C20.5833 5.66697 20.5486 5.5906 20.4791 5.52126C20.4097 5.45175 20.3334 5.41699 20.2499 5.41699H5.75007C5.66665 5.41699 5.59028 5.45175 5.52094 5.52126C5.45143 5.5906 5.41667 5.66697 5.41667 5.75039V9.97945H3.79167V5.75039C3.79167 5.20312 3.98126 4.73991 4.36042 4.36074C4.73959 3.98158 5.20281 3.79199 5.75007 3.79199H20.2499C20.7972 3.79199 21.2604 3.98158 21.6396 4.36074C22.0188 4.73991 22.2083 5.20312 22.2083 5.75039V20.2503C22.2083 20.7975 22.0188 21.2607 21.6396 21.6399C21.2604 22.0191 20.7972 22.2087 20.2499 22.2087H10.7916Z" fill="white"/>
</g>
</svg>
